# xmcd
#
# Track frame offsets: 
#        150
#        14188
#        25921
#        41483
#        56749
#        73437
#        85467
#        101335
#        112778
#        133259
#        151592
#        163871
#        180037
#        190901
#
# Disc length: 2864 seconds
#
# Revision: 0
# Processed by: cddbd v1.5.2PL0 Copyright (c) Steve Scherf et al.
# Submitted via: ExactAudioCopyFreeDBPlugin 1.0
#
DISCID=b80b2e0e
DTITLE=Sarah and Thomas - Hard for to Love
DYEAR=2016
DGENRE=Old Time
TTITLE0=Hop High My Lulu Girl
TTITLE1=Darling Nellie Across the Sea
TTITLE2=All I Ever Loved was You
TTITLE3=Hard for to Love
TTITLE4=The Blackest Crow
TTITLE5=Columbus Stockade Blues
TTITLE6=Come All You Fair and Tender Maidens
TTITLE7=Star of the County Down
TTITLE8=Crying Steel Guitar Waltz
TTITLE9=The Unquiet Grave
TTITLE10=I Didn't Know the Gun was Loaded
TTITLE11=Lily of the West
TTITLE12=High Top Shoes
TTITLE13=Our Song
EXTD=
EXTT0=
EXTT1=
EXTT2=
EXTT3=
EXTT4=
EXTT5=
EXTT6=
EXTT7=
EXTT8=
EXTT9=
EXTT10=
EXTT11=
EXTT12=
EXTT13=
PLAYORDER=
